<svg width="129px" height="143px" viewBox="0 0 129 143" xmlns="http://www.w3.org/2000/svg">
    <g fill="none" fill-rule="evenodd">
        <polygon fill="#2C9656" points="60 32 51 32 43 32 43 41 43 49 35 49 26 49 26 58 26 66 17 66 17 74 9 74 9 83 0 83 0 91 9 91 9 100 9 108 17 108 26 108 26 116 26 124 35 124 43 124 43 133 43 143 51 143 60 143 69 143 77 143 77 133 77 124 86 124 95 124 95 116 95 108 103 108 111 108 111 100 111 91 120 91 129 91 129 83 129 66 120 66 120 58 120 49 111 49 103 49 95 49 95 32 77 32 77 24 69 24 60 24"/>
        
        <g transform="translate(0, 24)" fill="#73C254">
            <polygon points="77 84 77 92 69 92 69 109 77 109 77 100 95 100 95 84 111 84 111 67 129 67 129 50 111 50 111 59 95 59 95 67 86 67 86 84"/>
            <polygon points="47 92 60 92 60 100 60 119 69 119 60 119 43 119 43 109 43 100 35 100 26 100 26 92 26 76 47 76"/>
            <polygon points="0 50 0 42 9 42 17 42 17 34 17 25 26 25 35 25 35 17 35 8 43 8 51 8 51 0 60 0 69 0 69 17 43 17 43 34 26 34 26 50 17 50 17 59 0 59"/>
        </g>

        <g transform="translate(69, 0)">
            <rect fill="#442F24" x="17" y="32" width="9" height="26"/>
            <polygon fill="#319756" points="0 16 26 16 34 16 42 16 42 32 42 41 26 41 26 32 17 32 8 32 8 24 0 24"/>
            <polygon fill="#9BEB58" points="17 0 17 8 8 8 8 16 26 16 34 16 42 16 42 8 34 8 34 0"/>
        </g>

        <g transform="translate(37, 45)">
            <polygon fill="#78481E" points="0 46 0 25 6 25 6 17 14 17 14 9 23 9 23 0 35 0 35 4 42 4 42 11 49 11 49 32 38 32 38 46"/>
            <polygon fill="#BD933D" points="7 46 7 34 14 34 14 25 27 25 27 30 32 30 32 46"/>
        </g>
    </g>
</svg>

