<svg width="146px" height="168px" viewBox="0 0 146 168" xmlns="http://www.w3.org/2000/svg">
    <g transform="translate(0, 0)">
        <polygon fill="#2C9656" points="60 32 51 32 51 41 43 41 43 49 35 49 35 58 26 58 26 66 17 66 17 74 9 74 9 83 0 83 0 91 9 91 9 100 17 100 17 108 26 108 26 116 35 116 35 124 43 124 43 133 51 133 51 143 60 143 60 151 69 151 69 143 77 143 77 133 86 133 86 124 95 124 95 116 103 116 103 108 111 108 111 100 120 100 120 91 129 91 129 83 138 83 138 74 138 66 129 66 129 58 120 58 120 49 111 49 111 41 103 41 103 49 86 49 86 41 77 41 77 24 69 24 69 32" />
        
        <g fill="#73C254" transform="translate(0, 24)">
            <polygon points="111 50 111 59 95 59 95 67 86 67 86 76 103 76 103 67 120 67 120 59 129 59 129 50 146 50 146 42 120 42 120 50" />
            <polygon points="77 84 77 92 69 92 69 109 77 109 77 100 86 100 86 92 95 92 95 84" />
            <polygon points="17 67 26 67 26 76 60 76 60 92 51 92 51 100 60 100 60 119 69 119 69 144 60 144 60 127 51 127 51 109 43 109 43 100 35 100 35 92 26 92 26 76 17 76" />
            <polygon points="103 42 103 50 111 50 111 42" />
            <polygon points="0 50 9 50 9 42 17 42 17 34 26 34 26 25 35 25 35 17 43 17 43 8 51 8 51 0 60 0 69 0 69 8 60 8 60 17 51 17 51 25 43 25 43 34 35 34 35 42 26 42 26 50 17 50 17 59 9 59 0 59" />
        </g>
        
        <g transform="translate(69, 0)">
            <rect fill="#442F24" x="17" y="32" width="9" height="26" />
            <polygon fill="#319756" points="8 16 26 16 26 24 34 24 34 16 42 16 42 32 17 32 17 24 8 24" />
            <polygon fill="#9BEB58" points="17 0 17 8 8 8 8 16 26 16 26 24 34 24 34 16 42 16 42 8 34 8 34 0" />
            <polygon fill="#02693D" points="8 16 0 16 0 24 8 24" />
            <polygon fill="#02693D" points="17 24 8 24 8 32 17 32" />
            <polygon fill="#02693D" points="34 32 26 32 26 41 34 41" />
        </g>

        <g transform="translate(37, 45)">
            <polygon fill="#78481E" points="0 46 0 29 2 29 2 25 6 25 6 21 10 21 10 17 14 17 14 13 18 13 18 9 23 9 23 5 28 5 28 0 32 0 32 2 35 2 35 4 38 4 38 8 42 8 42 11 46 11 46 15 49 15 49 30 47 30 47 32 44 32 44 34 42 34 42 36 40 36 40 38 38 38 38 40 36 40 36 46" />
            <polygon fill="#BD933D" points="7 46 7 25 14 25 14 21 20 21 20 17 23 17 23 21 27 21 27 23 30 23 30 26 32 26 32 46" />
        </g>

        <polygon fill="#4F3F35" points="51 79 51 91 60 91 60 79" />
    </g>
</svg>

